<?xml version="1.0" encoding="UTF-8" standalone="no"?>
<!-- Created with Inkscape (http://www.inkscape.org/) -->

<svg
   xmlns:dc="http://purl.org/dc/elements/1.1/"
   xmlns:cc="http://creativecommons.org/ns#"
   xmlns:rdf="http://www.w3.org/1999/02/22-rdf-syntax-ns#"
   xmlns:svg="http://www.w3.org/2000/svg"
   xmlns="http://www.w3.org/2000/svg"
   xmlns:sodipodi="http://sodipodi.sourceforge.net/DTD/sodipodi-0.dtd"
   xmlns:inkscape="http://www.inkscape.org/namespaces/inkscape"
   width="74.317474mm"
   height="29.564102mm"
   viewBox="0 0 74.317474 29.564102"
   version="1.1"
   id="svg8"
   inkscape:version="0.92.2 5c3e80d, 2017-08-06"
   sodipodi:docname="abadis-w.svg">
  <defs
     id="defs2" />
  <sodipodi:namedview
     id="base"
     pagecolor="#ffffff"
     bordercolor="#666666"
     borderopacity="1.0"
     inkscape:pageopacity="0.0"
     inkscape:pageshadow="2"
     inkscape:zoom="1.4"
     inkscape:cx="140.44247"
     inkscape:cy="43.700236"
     inkscape:document-units="mm"
     inkscape:current-layer="layer1"
     showgrid="false"
     fit-margin-top="0"
     fit-margin-left="0"
     fit-margin-right="0"
     fit-margin-bottom="0"
     inkscape:window-width="1366"
     inkscape:window-height="703"
     inkscape:window-x="1920"
     inkscape:window-y="432"
     inkscape:window-maximized="1" />
  <metadata
     id="metadata5">
    <rdf:RDF>
      <cc:Work
         rdf:about="">
        <dc:format>image/svg+xml</dc:format>
        <dc:type
           rdf:resource="http://purl.org/dc/dcmitype/StillImage" />
        <dc:title></dc:title>
      </cc:Work>
    </rdf:RDF>
  </metadata>
  <g
     inkscape:label="Layer 1"
     inkscape:groupmode="layer"
     id="layer1"
     transform="translate(-56.967318,-49.26157)">
    <path
       style="fill:#000000;stroke-width:0.26458335"
       d="m 89.854024,78.37987 c -0.82685,-0.93111 -2.995096,-4.09616 -2.995096,-4.37202 0,-0.13775 0.592243,-0.6522 1.316093,-1.14321 0.723853,-0.49102 1.319163,-1.00059 1.322913,-1.13239 0.004,-0.13179 -0.55872,-1.07008 -1.249943,-2.08508 l -1.256771,-1.84546 0.770215,-0.56075 c 1.674719,-1.21926 2.015469,-1.6067 1.761129,-2.00243 -0.21387,-0.33278 -0.5018,-0.32361 -2.182608,0.0695 -2.43841,0.57034 -2.789216,0.56395 -2.985481,-0.0544 -0.155673,-0.49048 -0.197218,-0.49057 -2.068351,-0.005 -2.305535,0.59888 -3.006403,0.62554 -3.286512,0.12501 -0.184023,-0.32883 -0.480035,-0.32293 -2.19596,0.0437 -1.090797,0.2331 -2.021116,0.4519 -2.067377,0.48623 -0.04626,0.0343 -0.403449,1.29179 -0.79375,2.79437 l -0.709639,2.73196 -1.190625,0.21675 C 68.518926,72.28807 59.85181,70.63498 57.647581,68.90114 l -0.680263,-0.5351 0.56144,-1.10776 c 0.912675,-1.80076 3.743798,-5.9834 5.638157,-8.32969 2.616382,-3.24056 6.487779,-7.19785 7.041616,-7.19785 0.315352,0 1.107429,0.90218 2.264853,2.57968 0.978946,1.41883 1.820186,2.63129 1.869424,2.69434 0.04924,0.0631 0.230413,-0.0262 0.402613,-0.19843 0.227255,-0.22726 2.505778,-0.31309 8.311066,-0.31309 7.017907,0 8.050467,0.0525 8.426347,0.42837 0.23561,0.2356 0.48871,0.36804 0.56246,0.29429 0.0737,-0.0737 0.4118,-1.22936 0.75124,-2.56805 0.33944,-1.33868 0.75577,-2.57244 0.92518,-2.74169 0.20355,-0.20336 1.35771,-0.29527 3.40334,-0.27101 4.073976,0.0483 7.985866,0.83813 10.683046,2.15692 l 2.03147,0.99329 1.60133,-1.54772 c 0.95638,-0.92436 1.78412,-1.51251 2.05518,-1.46031 0.24963,0.0481 1.0858,0.97999 1.85817,2.07093 0.77237,1.09093 1.52982,2.02548 1.68321,2.07677 0.1534,0.0513 0.95668,-0.43825 1.78508,-1.08787 1.90469,-1.49362 6.1544,-4.29047 7.75915,-5.1065 1.16124,-0.5905 1.24789,-0.59907 1.64293,-0.16255 1.66879,1.84398 3.28362,8.95247 3.03466,13.35852 -0.12331,2.18216 -0.27774,2.33705 -2.94435,2.95313 -2.96916,0.68598 -2.96643,0.68397 -3.34328,2.45978 -0.18402,0.86713 -0.42808,1.72787 -0.54235,1.91277 -0.25808,0.41758 -3.35365,1.03484 -5.25509,1.04787 -1.64124,0.0112 -1.57482,0.48228 -0.59085,-4.18993 0.31789,-1.50945 0.51395,-2.80849 0.43569,-2.88675 -0.24032,-0.24032 -1.20387,0.78944 -1.20387,1.28659 0,0.84836 -1.08708,5.20889 -1.40667,5.64247 -0.22341,0.30311 -0.98265,0.48126 -2.64997,0.62181 l -2.33684,0.19699 1.07944,1.5875 c 0.59369,0.87313 1.07973,1.71724 1.08007,1.87582 2.7e-4,0.15858 -1.08931,1.02111 -2.42146,1.91673 -1.91404,1.28684 -2.4991,1.5645 -2.78922,1.32372 -0.51821,-0.43007 -3.25536,-4.34937 -3.25536,-4.66132 0,-0.14202 0.65485,-0.70922 1.45521,-1.26046 0.80037,-0.55123 1.45521,-1.08689 1.45521,-1.19036 0,-0.10346 -0.99431,-0.43749 -2.20959,-0.74229 -2.32688,-0.5836 -4.18659,-1.30851 -5.06106,-1.9728 -0.48993,-0.37216 -0.64147,-0.28686 -2.344686,1.31987 l -1.82091,1.71776 -0.87735,-0.85037 -0.87736,-0.85036 -0.94514,0.58413 c -0.51983,0.32127 -0.94387,0.66372 -0.94229,0.76099 0.002,0.0973 0.53735,0.94216 1.19062,1.87753 0.65327,0.93537 1.18777,1.83663 1.18777,2.0028 0,0.23918 -3.25776,2.61245 -4.65789,3.39327 -0.16075,0.0897 -0.52691,-0.10123 -0.81368,-0.42417 z m 3.8098,-2.94787 c 0.24761,-0.22087 0.0211,-0.72116 -0.97416,-2.15207 -0.71323,-1.02537 -1.21559,-1.98513 -1.11636,-2.1328 0.0992,-0.14768 0.74841,-0.65501 1.44263,-1.1274 0.77711,-0.52879 1.19198,-0.97967 1.07945,-1.17316 -0.10052,-0.17285 -0.54945,-0.84433 -0.99763,-1.49218 -0.44818,-0.64786 -0.88919,-1.28549 -0.98002,-1.41697 -0.0908,-0.13148 -0.95215,0.28891 -1.91405,0.93419 l -1.748892,1.17324 1.318732,1.87178 c 0.72531,1.02947 1.31874,1.93906 1.31874,2.02131 0,0.0823 -0.65049,0.63008 -1.44552,1.21741 l -1.445516,1.06786 1.204866,1.72358 1.20486,1.72357 1.36513,-0.9753 c 0.75083,-0.53641 1.51031,-1.10479 1.68774,-1.26306 z m 18.412456,-0.50546 c -0.10273,-0.16986 -0.60271,-0.90414 -1.11106,-1.63174 -0.50835,-0.72761 -0.95183,-1.36335 -0.98552,-1.41277 -0.0459,-0.0674 -2.89182,1.74467 -3.50163,2.22955 -0.0508,0.0404 0.46032,0.84784 1.13576,1.79437 l 1.22806,1.72098 1.71059,-1.19578 c 1.06509,-0.74455 1.64011,-1.31233 1.5238,-1.50461 z M 71.314689,70.61143 c 0.918543,-0.15183 1.021086,-0.26121 1.38097,-1.47307 0.213813,-0.71999 0.459706,-1.68667 0.546428,-2.14819 l 0.157677,-0.83912 h -3.896641 c -2.577965,0 -3.929604,-0.0977 -3.994046,-0.2886 -0.192502,-0.57034 2.203377,-3.72938 4.757935,-6.27349 1.432196,-1.42634 2.566354,-2.68771 2.52035,-2.80305 -0.19582,-0.49095 -2.480087,-3.71571 -2.637446,-3.72336 -0.0949,-0.005 -1.271194,1.15248 -2.613977,2.57131 -3.304746,3.4919 -6.554441,7.85358 -9.168125,12.30527 -0.34224,0.58291 5.274154,2.22359 8.777384,2.56408 2.973364,0.28898 3.061952,0.29128 4.169491,0.10822 z m 43.457031,-0.0624 c 0.70345,-0.15044 0.843,-0.34862 1.2356,-1.75463 0.79613,-2.85115 1.05134,-2.65678 -3.35132,-2.55241 -3.67786,0.0872 -3.83666,0.0693 -3.83666,-0.43287 0,-0.91293 2.02301,-3.59833 4.7337,-6.28364 l 2.62187,-2.59732 -1.31384,-1.87085 c -0.72262,-1.02897 -1.44703,-1.87086 -1.6098,-1.87086 -0.38914,0 -5.03971,5.12791 -7.07316,7.79917 -1.64001,2.15441 -4.50252,6.56145 -4.50252,6.93196 0,0.401 2.13872,1.29133 4.38152,1.82399 3.41862,0.81192 7.09923,1.15295 8.71461,0.80746 z M 99.616794,67.24966 c 1.414276,-1.55535 3.310346,-3.79862 4.213486,-4.98503 1.7413,-2.28747 4.45989,-6.4838 4.45989,-6.88415 0,-0.37632 -2.59022,-1.42092 -4.71964,-1.90337 -2.54334,-0.57622 -6.778526,-0.95606 -8.112426,-0.72758 -1.02881,0.17623 -1.07036,0.22509 -1.50018,1.76429 -0.79771,2.85661 -1.05184,2.66333 3.35205,2.54945 3.691416,-0.0954 3.836446,-0.0792 3.836446,0.42924 0,0.90772 -1.978996,3.52467 -4.730526,6.25544 l -2.64393,2.624 1.35787,1.94482 c 0.74683,1.06965 1.48335,1.90341 1.63671,1.85281 0.15336,-0.0506 1.43598,-1.36456 2.85025,-2.91992 z m 21.940446,2.69531 c 2.18836,-0.3614 2.17466,-0.3406 2.75363,-4.18124 0.38473,-2.55212 0.52026,-6.62415 0.22048,-6.62415 -0.29121,0 -2.5966,1.78705 -3.29909,2.55733 -0.56293,0.61725 -0.78462,1.33523 -1.25277,4.05725 -0.31285,1.81901 -0.64403,3.57519 -0.73597,3.90261 -0.196,0.69807 -0.18011,0.70005 2.31372,0.2882 z M 73.525491,64.8883 c 0.306144,-0.30614 0.920123,-4.76536 0.845207,-6.13858 l -0.07948,-1.45686 -2.566687,2.44472 c -2.477197,2.35948 -4.444771,4.69679 -4.444771,5.28001 0,0.28659 5.953082,0.16336 6.24573,-0.12929 z m 40.403999,0.16545 c 0.19897,-0.19898 -1.65124,-1.66254 -2.11557,-1.67347 -0.29012,-0.007 -1.40708,1.33244 -1.40708,1.68713 0,0.21423 3.30759,0.20139 3.52265,-0.0137 z m 14.3512,-0.27875 c 1.68825,-0.44986 1.68889,-0.4504 1.85613,-1.56563 0.36084,-2.40624 -0.67139,-8.60119 -1.90412,-11.4276 l -0.61265,-1.4047 -1.26442,0.72788 c -1.78589,1.02807 -4.96615,3.15718 -6.74751,4.51729 -1.71351,1.30831 -5.89239,5.12785 -6.61411,6.04538 l -0.47696,0.60635 1.91057,1.34607 1.91057,1.34607 2.56918,-2.56628 c 2.80276,-2.7996 5.80779,-4.99789 6.47962,-4.74009 0.35755,0.1372 0.40344,0.68283 0.32488,3.86269 -0.10513,4.255 -0.29429,4.01548 2.56882,3.25257 z M 77.768279,64.02417 c 0.748216,-0.21163 1.432874,-0.57366 1.521462,-0.80452 0.08859,-0.23086 0.23845,-1.6005 0.333026,-3.04365 l 0.171955,-2.62391 h -2.012158 -2.012158 l -0.130513,0.8599 c -0.07178,0.47294 -0.189481,1.51474 -0.261554,2.3151 -0.07207,0.80036 -0.215923,2.03833 -0.319667,2.75103 l -0.188626,1.29582 0.76892,-0.18249 c 0.422906,-0.10038 1.381097,-0.35565 2.129313,-0.56728 z m 5.254191,-0.0771 1.5875,-0.44185 0.278913,-2.77812 c 0.1534,-1.52797 0.235672,-2.86742 0.182822,-2.97656 -0.05285,-0.10914 -0.976638,-0.19844 -2.05286,-0.19844 h -1.956771 l -0.131649,0.8599 c -0.07241,0.47294 -0.20165,1.6338 -0.287205,2.57968 -0.08556,0.94589 -0.223552,2.10675 -0.30666,2.57969 -0.135975,0.77378 -0.08854,0.85778 0.473652,0.83872 0.343617,-0.0116 1.339133,-0.22 2.212258,-0.46302 z m 5.291666,-10e-4 1.587498,-0.44318 0.17795,-1.45388 c 0.0979,-0.79963 0.21692,-2.10872 0.26458,-2.90908 l 0.0866,-1.45522 -2.050522,-0.0773 c -1.127786,-0.0425 -2.051497,0.017 -2.05269,0.13229 -0.0046,0.4457 -0.528214,5.01634 -0.668089,5.83196 -0.131556,0.7671 -0.08193,0.85761 0.459833,0.83872 0.334015,-0.0116 1.321675,-0.2206 2.1948,-0.46435 z m 5.047988,0.0542 c 0.98459,-0.24732 1.81792,-0.61961 1.95334,-0.87265 0.36041,-0.67343 1.37875,-4.82392 1.22203,-4.98064 -0.14969,-0.1497 -4.65683,0.38094 -4.84647,0.57058 -0.0636,0.0636 -0.22348,1.04785 -0.3553,2.18723 -0.13182,1.13938 -0.29708,2.39903 -0.36724,2.79921 -0.15328,0.87418 0.0117,0.8946 2.39364,0.29627 z m 5.24823,-4.30047 c 0.52171,-0.71072 0.94857,-1.36556 0.94857,-1.45521 0,-0.26264 -1.54146,-0.18694 -1.70886,0.0839 -0.27853,0.45066 -0.60767,2.6635 -0.39618,2.6635 0.11434,0 0.63475,-0.5815 1.15647,-1.29222 z"
       id="path826"
       inkscape:connector-curvature="0" />
    <path
       style="opacity:1;fill:#ffffff;fill-opacity:1;stroke:none;stroke-width:1.42857146;stroke-linecap:round;stroke-linejoin:round;stroke-miterlimit:4;stroke-dasharray:none;stroke-opacity:1"
       d="M 42.085328,80.36908 C 33.570236,79.602023 22.461528,77.35349 14.34989,74.755101 4.3696241,71.558137 4.5754459,71.99132 9.4153679,64.369662 15.31493,55.079339 21.20156,46.787635 27.309135,39.16512 33.677743,31.216826 47.821805,15.748048 49.20676,15.216591 c 0.634195,-0.243363 2.581478,1.888423 5.50154,6.022807 2.485937,3.519727 4.609622,6.662104 4.7193,6.983061 0.109678,0.320956 -4.010794,5.040916 -9.156604,10.488798 -13.268265,14.047148 -19.761562,23.024647 -17.64464,24.395117 0.488149,0.316022 7.255944,0.679312 15.039546,0.807311 l 14.152002,0.232727 -0.448568,2.267273 c -1.391702,7.034325 -3.526677,12.778327 -4.942929,13.298611 -2.737232,1.005569 -7.8632,1.240324 -14.341079,0.656784 z"
       id="path818"
       inkscape:connector-curvature="0"
       transform="matrix(0.26458333,0,0,0.26458333,56.967318,49.26157)" />
    <path
       style="opacity:1;fill:#ffffff;fill-opacity:1;stroke:none;stroke-width:1.42857146;stroke-linecap:round;stroke-linejoin:round;stroke-miterlimit:4;stroke-dasharray:none;stroke-opacity:1"
       d="m 68.170894,57.836237 c 0.0078,-0.321117 0.649094,-5.88742 1.425153,-12.369563 0.776059,-6.482143 1.412555,-12.1875 1.414435,-12.678572 0.0025,-0.657379 1.981431,-0.892857 7.503418,-0.892857 4.23578,0 7.5,0.293945 7.5,0.67538 0,3.681258 -1.714136,19.237832 -2.224929,20.192258 -0.563078,1.052122 -4.706253,2.580424 -14.382214,5.305199 -0.6875,0.193601 -1.243639,0.08927 -1.235863,-0.231845 z"
       id="path820"
       inkscape:connector-curvature="0"
       transform="matrix(0.26458333,0,0,0.26458333,56.967318,49.26157)" />
    <path
       style="opacity:1;fill:#ffffff;fill-opacity:1;stroke:none;stroke-width:1.42857146;stroke-linecap:round;stroke-linejoin:round;stroke-miterlimit:4;stroke-dasharray:none;stroke-opacity:1"
       d="m 88.490032,54.573817 c 0.452171,-2.637337 2.507503,-20.424392 2.517386,-21.785715 0.0048,-0.657184 1.986129,-0.892857 7.506482,-0.892857 h 7.5 l -0.0722,2.678572 c -0.0397,1.473214 -0.4415,6.375 -0.89286,10.892857 l -0.82064,8.214286 -5.71429,1.548545 c -3.142857,0.851699 -6.773494,1.574913 -8.068081,1.607142 -2.269327,0.05649 -2.339512,-0.02471 -1.955787,-2.26283 z"
       id="path822"
       inkscape:connector-curvature="0"
       transform="matrix(0.26458333,0,0,0.26458333,56.967318,49.26157)" />
    <path
       style="opacity:1;fill:#ffffff;fill-opacity:1;stroke:none;stroke-width:1.42857146;stroke-linecap:round;stroke-linejoin:round;stroke-miterlimit:4;stroke-dasharray:none;stroke-opacity:1"
       d="m 108.7884,56.574511 c -0.1764,-0.176404 0.32775,-5.801404 1.12033,-12.5 l 1.44107,-12.179266 h 7.42406 7.42407 l -0.49956,6.964286 c -0.27475,3.830357 -0.71795,8.732143 -0.98487,10.892857 l -0.48531,3.928572 -5.71429,1.548545 c -5.56925,1.509241 -9.07625,1.994249 -9.7255,1.345006 z"
       id="path824"
       inkscape:connector-curvature="0"
       transform="matrix(0.26458333,0,0,0.26458333,56.967318,49.26157)" />
    <path
       style="opacity:1;fill:#ffffff;fill-opacity:1;stroke:none;stroke-width:1.42857146;stroke-linecap:round;stroke-linejoin:round;stroke-miterlimit:4;stroke-dasharray:none;stroke-opacity:1"
       d="m 128.9455,54.216674 c 0.0409,-1.473214 0.60345,-6.203442 1.25,-10.511618 l 1.17554,-7.833047 2.5,-0.532499 c 1.375,-0.292874 5.44933,-0.751267 9.05407,-1.018651 l 6.55406,-0.486152 -0.6568,3.137412 c -2.09336,9.999602 -3.81008,15.078457 -5.46274,16.161321 -1.95089,1.278274 -10.44497,3.761805 -12.86599,3.761805 -1.41205,0 -1.61294,-0.347571 -1.54814,-2.678571 z"
       id="path827"
       inkscape:connector-curvature="0"
       transform="matrix(0.26458333,0,0,0.26458333,56.967318,49.26157)" />
    <path
       style="opacity:1;fill:#ffffff;fill-opacity:1;stroke:none;stroke-width:1.42857146;stroke-linecap:round;stroke-linejoin:round;stroke-miterlimit:4;stroke-dasharray:none;stroke-opacity:1"
       d="m 147.55944,75.847909 c -1.19563,-1.361749 -3.50615,-4.437776 -5.13449,-6.835614 l -2.96063,-4.359708 9.9078,-10.12867 c 9.7015,-9.917784 15.81371,-17.500546 17.33776,-21.50909 1.40248,-3.688816 0.56935,-3.926355 -14.52086,-4.140135 l -13.67512,-0.193732 0.0959,-2.142858 c 0.12876,-2.875895 2.19992,-9.804921 3.43615,-11.495585 3.07364,-4.203489 34.94184,-0.316278 47.98209,5.852745 l 3.81997,1.807136 -1.71612,3.346424 c -2.89065,5.636766 -14.68881,22.448805 -21.47517,30.60151 -6.94741,8.346172 -19.47364,21.673485 -20.37073,21.673485 -0.30399,0 -1.53096,-1.114159 -2.72659,-2.475908 z"
       id="path829"
       inkscape:connector-curvature="0"
       transform="matrix(0.26458333,0,0,0.26458333,56.967318,49.26157)" />
    <path
       style="opacity:1;fill:#ffffff;fill-opacity:1;stroke:none;stroke-width:1.42857146;stroke-linecap:round;stroke-linejoin:round;stroke-miterlimit:4;stroke-dasharray:none;stroke-opacity:1"
       d="m 122.72251,100.63024 -4.36281,-6.234995 5.25567,-3.898223 c 2.89062,-2.144022 5.25567,-4.348052 5.25567,-4.897842 0,-0.549792 -2.12055,-4.041115 -4.71233,-7.758495 -2.59178,-3.717382 -4.60071,-6.859298 -4.46428,-6.982035 1.30946,-1.178097 11.6923,-7.534833 12.3071,-7.534833 0.44238,0 2.48305,2.467028 4.53481,5.482284 4.24679,6.24105 4.34394,5.74529 -2.09715,10.701596 -2.27677,1.751931 -4.13958,3.43053 -4.13958,3.730218 0,0.299689 1.92858,3.55263 4.28572,7.228759 2.35714,3.676128 4.28046,7.028214 4.27404,7.449078 -0.009,0.614663 -9.77028,8.167048 -11.35515,8.785918 -0.23039,0.09 -2.38216,-2.64218 -4.78171,-6.07143 z"
       id="path831"
       inkscape:connector-curvature="0"
       transform="matrix(0.26458333,0,0,0.26458333,56.967318,49.26157)" />
    <path
       style="opacity:1;fill:#ffffff;fill-opacity:1;stroke:none;stroke-width:1.42857146;stroke-linecap:round;stroke-linejoin:round;stroke-miterlimit:4;stroke-dasharray:none;stroke-opacity:1"
       d="m 197.10492,79.332464 c -13.53141,-2.102548 -27.51959,-6.71997 -27.51959,-9.084066 0,-1.384653 9.51811,-16.180786 15.69797,-24.402879 8.63318,-11.486149 25.75851,-30.378845 27.53698,-30.378845 0.72373,0 6.45664,7.19543 9.28943,11.659239 l 1.27962,2.016382 -8.95655,9.055047 C 201.5978,51.173481 196.0139,58.561574 196.0139,62.567467 c 0,2.132917 2.41478,2.456769 14.31472,1.919784 11.27409,-0.508743 14.25671,-0.02441 14.25671,2.315076 0,2.77242 -2.99605,11.20177 -4.41245,12.414347 -1.20516,1.031744 -2.787,1.237921 -9.05954,1.180818 -4.17969,-0.03805 -10.48348,-0.517313 -14.00842,-1.065028 z"
       id="path833"
       inkscape:connector-curvature="0"
       transform="matrix(0.26458333,0,0,0.26458333,56.967318,49.26157)" />
    <path
       style="opacity:1;fill:#ffffff;fill-opacity:1;stroke:none;stroke-width:1.42857146;stroke-linecap:round;stroke-linejoin:round;stroke-miterlimit:4;stroke-dasharray:none;stroke-opacity:1"
       d="m 192.24587,101.3528 c -2.12131,-3.040943 -4.08085,-5.917817 -4.35453,-6.393057 -0.32077,-0.557011 1.60293,-2.270387 5.41326,-4.821429 3.25098,-2.176545 6.23516,-3.949443 6.63151,-3.939774 0.39636,0.0097 2.40801,2.483291 4.47035,5.496938 l 3.74971,5.479357 -1.78209,1.860102 c -0.98015,1.023053 -3.69216,3.207113 -6.02669,4.853473 l -4.24459,2.99336 z"
       id="path835"
       inkscape:connector-curvature="0"
       transform="matrix(0.26458333,0,0,0.26458333,56.967318,49.26157)" />
    <path
       style="opacity:1;fill:#ffffff;fill-opacity:1;stroke:none;stroke-width:1.42857146;stroke-linecap:round;stroke-linejoin:round;stroke-miterlimit:4;stroke-dasharray:none;stroke-opacity:1"
       d="m 260.5468,58.860195 c -0.30327,-0.490706 -0.46477,-6.356778 -0.35889,-13.035714 0.23628,-14.903864 -0.0711,-15.729742 -4.96231,-13.334207 -5.01282,2.455076 -12.08279,8.133501 -21.88803,17.579908 l -9.12237,8.788537 -6.60065,-4.608673 c -3.63036,-2.534771 -6.60065,-4.992182 -6.60065,-5.460915 0,-2.158719 21.02357,-21.181265 31.78571,-28.760349 10.73697,-7.561356 23.77713,-15.7160167 24.2437,-15.1607947 0.73562,0.8753855 4.27541,10.8500327 5.36156,15.1081577 3.77876,14.814132 5.23056,33.457421 2.79524,35.895043 -1.22424,1.225408 -9.79231,3.8812 -12.52145,3.8812 -0.86925,0 -1.82858,-0.401487 -2.13186,-0.892193 z"
       id="path837"
       inkscape:connector-curvature="0"
       transform="matrix(0.26458333,0,0,0.26458333,56.967318,49.26157)" />
    <path
       style="opacity:1;fill:#ffffff;fill-opacity:1;stroke:none;stroke-width:1.42857146;stroke-linecap:round;stroke-linejoin:round;stroke-miterlimit:4;stroke-dasharray:none;stroke-opacity:1"
       d="m 235.53403,77.43096 c 0.21411,-0.883929 1.39822,-6.898753 2.63136,-13.366275 1.23313,-6.467523 2.66253,-12.73538 3.17644,-13.928571 1.02813,-2.387122 4.54556,-5.886897 10.02523,-9.974907 l 3.56744,-2.661431 0.47614,2.328059 c 0.53508,2.616256 -0.45396,18.54887 -1.59157,25.638839 -0.40973,2.553571 -1.22804,5.990445 -1.81846,7.637497 -1.20451,3.360133 -2.34667,3.937137 -10.27242,5.189509 -6.49168,1.025768 -6.64637,1.004223 -6.19416,-0.86272 z"
       id="path839"
       inkscape:connector-curvature="0"
       transform="matrix(0.26458333,0,0,0.26458333,56.967318,49.26157)" />
  </g>
</svg>
