<?xml version="1.0" encoding="UTF-8" standalone="no"?>
<svg
   xmlns:dc="http://purl.org/dc/elements/1.1/"
   xmlns:cc="http://creativecommons.org/ns#"
   xmlns:rdf="http://www.w3.org/1999/02/22-rdf-syntax-ns#"
   xmlns:svg="http://www.w3.org/2000/svg"
   xmlns="http://www.w3.org/2000/svg"
   xmlns:sodipodi="http://sodipodi.sourceforge.net/DTD/sodipodi-0.dtd"
   xmlns:inkscape="http://www.inkscape.org/namespaces/inkscape"
   id="Capa_1"
   enable-background="new 0 0 512 512"
   height="330.32199"
   viewBox="0 0 512 330.32199"
   width="512"
   version="1.1"
   sodipodi:docname="UK.svg"
   inkscape:version="0.92.2 5c3e80d, 2017-08-06">
  <metadata
     id="metadata59">
    <rdf:RDF>
      <cc:Work
         rdf:about="">
        <dc:format>image/svg+xml</dc:format>
        <dc:type
           rdf:resource="http://purl.org/dc/dcmitype/StillImage" />
        <dc:title></dc:title>
      </cc:Work>
    </rdf:RDF>
  </metadata>
  <defs
     id="defs57" />
  <sodipodi:namedview
     pagecolor="#ffffff"
     bordercolor="#666666"
     borderopacity="1"
     objecttolerance="10"
     gridtolerance="10"
     guidetolerance="10"
     inkscape:pageopacity="0"
     inkscape:pageshadow="2"
     inkscape:window-width="815"
     inkscape:window-height="480"
     id="namedview55"
     showgrid="false"
     fit-margin-top="0"
     fit-margin-left="0"
     fit-margin-right="0"
     fit-margin-bottom="0"
     inkscape:zoom="0.4609375"
     inkscape:cx="256"
     inkscape:cy="165.161"
     inkscape:window-x="0"
     inkscape:window-y="28"
     inkscape:window-maximized="0"
     inkscape:current-layer="Capa_1" />
  <g
     id="g52"
     transform="translate(0,-90.839)">
    <path
       d="M 466.298,90.839 H 297.29 l -16.516,12.828 H 231.226 L 214.71,90.839 H 45.702 L 8.5,107.355 V 412.333 H 479.667 L 512,391.678 V 297.29 L 498.75,280.774 V 231.226 L 512,214.71 v -94.386 z"
       id="path2"
       inkscape:connector-curvature="0"
       style="fill:#5055a0" />
    <path
       d="M 451,404.645 H 66.064 c -27.365,0 -49.548,-22.184 -49.548,-49.548 V 125 L 0,120.324 v 94.386 l 9,4.623 v 72.5 l -9,5.458 v 94.387 l 45.699,29.483 H 214.71 l 16.516,-11.286 h 49.548 l 16.515,11.286 h 169.012 z"
       id="path4"
       inkscape:connector-curvature="0"
       style="fill:#3f3f8f" />
    <path
       d="M 496.686,90.89 476.375,95.375 19.073,389.253 49.438,408.907 506.917,113.25 510.853,101.41 C 508.595,95.6 503.177,91.357 496.686,90.89 Z"
       id="path6"
       inkscape:connector-curvature="0"
       style="fill:#e5646e" />
    <path
       d="M 26.287,384.55 1.109,410.608 c 2.253,5.816 7.704,10.039 14.196,10.509 L 57.339,403.83 C 44.652,401.573 33.665,394.497 26.287,384.55 Z"
       id="path8"
       inkscape:connector-curvature="0"
       style="fill:#db4655" />
    <path
       d="m 34.5,94.25 -17.688,-3 c -9.122,0 -13.75,8.737 -13.75,17.859 v 3.141 l 475.188,305.5 32.25,-16.875 z"
       id="path10"
       inkscape:connector-curvature="0"
       style="fill:#e5646e" />
    <path
       d="m 506.375,404.645 h -50.442 l 19.755,9.667 21.013,6.805 c 6.487,-0.473 11.934,-4.691 14.188,-10.502 z"
       id="path12"
       inkscape:connector-curvature="0"
       style="fill:#db4655" />
    <path
       d="M 15.271,90.894 C 8.823,91.397 3.357,95.599 1.113,101.384 l 15.404,19.768 V 91.505 Z"
       id="path14"
       inkscape:connector-curvature="0"
       style="fill:#db4655" />
    <path
       d="M 512,231.226 289.032,222.968 280.774,90.839 h -49.548 l -8.258,132.129 H 8.25 v 66.064 h 214.718 v 124.301 h 66.064 V 289.032 L 512,280.774 Z"
       id="path16"
       inkscape:connector-curvature="0"
       style="fill:#e5646e" />
    <path
       d="m 0,280.774 16.516,8.258 V 222.968 L 0,231.226 Z"
       id="path18"
       inkscape:connector-curvature="0"
       style="fill:#db4655" />
    <path
       d="m 280.774,421.161 h -49.548 l -8.258,-16.516 h 66.064 z"
       id="path20"
       inkscape:connector-curvature="0"
       style="fill:#db4655" />
    <path
       d="M 512,280.774 H 289.032 c -4.561,0 -8.258,3.697 -8.258,8.258 v 115.613 l 7.79,7.79 8.726,-7.79 v -92.523 l 143.411,92.522 28.396,8.561 2.069,-8.561 -166.401,-107.353 h 30.471 l 166.399,107.354 7.865,3.105 2.5,-3.105 V 391.678 L 365.7,297.29 H 512 Z"
       id="path22"
       inkscape:connector-curvature="0"
       style="fill:#f2f2f6" />
    <path
       d="M 222.968,280.774 H 16.516 l -8.266,8.258 8.266,8.258 H 146.3 l -124.431,80.279 -6.119,13.264 16.039,-0.01 144.975,-93.533 h 30.471 l -160.399,103.482 2.289,9.603 22.174,-5.73 143.411,-92.522 v 92.522 l 7.957,7.688 8.559,-7.688 V 289.032 c 0,-4.561 -3.697,-8.258 -8.258,-8.258 z"
       id="path24"
       inkscape:connector-curvature="0"
       style="fill:#f2f2f6" />
    <path
       d="M 214.71,90.839 V 199.877 L 45.702,90.839 H 16.516 c -0.378,0 -0.874,0.03 -1.246,0.055 L 207.236,214.709 H 176.763 L 16.516,111.325 l -5.183,7.341 5.183,12.313 129.783,83.73 H 16.516 l -8.266,8.258 8.266,8.258 h 206.452 c 4.561,0 8.258,-3.697 8.258,-8.258 V 90.839 Z"
       id="path26"
       inkscape:connector-curvature="0"
       style="fill:#f2f2f6" />
    <path
       d="m 0,214.71 h 16.516 v 16.516 H 0 Z"
       id="path28"
       inkscape:connector-curvature="0"
       style="fill:#e1e1e6" />
    <path
       d="M 16.516,111.325 1.114,101.384 C 0.397,103.234 0,105.253 0,107.355 v 12.969 l 16.516,10.655 z"
       id="path30"
       inkscape:connector-curvature="0"
       style="fill:#e1e1e6" />
    <path
       d="m 512,107.355 c 0,-2.102 -0.431,-4.095 -1.148,-5.945 L 335.236,214.71 H 304.763 L 496.686,90.89 c -0.372,-0.025 -0.824,-0.051 -1.202,-0.051 H 466.298 L 297.29,199.877 V 90.839 h -16.516 v 132.129 c 0,4.56 3.697,8.258 8.258,8.258 H 512 V 214.71 H 365.701 L 512,120.324 Z"
       id="path32"
       inkscape:connector-curvature="0"
       style="fill:#f2f2f6" />
    <g
       id="g50"
       style="fill:#e1e1e6">
      <path
         d="M 0,280.774 H 16.516 V 297.29 H 0 Z"
         id="path34"
         inkscape:connector-curvature="0" />
      <path
         d="m 31.789,390.824 c -3.99,-3.829 -7.385,-8.278 -9.92,-13.254 L 0,391.678 v 12.967 c 0,2.103 0.393,4.113 1.109,5.963 z"
         id="path36"
         inkscape:connector-curvature="0" />
      <path
         d="m 214.71,404.645 h 16.516 v 16.516 H 214.71 Z"
         id="path38"
         inkscape:connector-curvature="0" />
      <path
         d="m 280.774,404.645 h 16.516 v 16.516 h -16.516 z"
         id="path40"
         inkscape:connector-curvature="0" />
      <path
         d="m 45.699,421.161 25.6,-16.516 h -5.234 c -6.82,0 -13.316,-1.381 -19.228,-3.872 l -31.53,20.337 c 0.373,0.025 0.831,0.051 1.21,0.051 z"
         id="path42"
         inkscape:connector-curvature="0" />
      <path
         d="m 280.774,404.645 h 16.516 v 16.516 h -16.516 z"
         id="path44"
         inkscape:connector-curvature="0" />
      <path
         d="m 510.89,410.616 c 0.717,-1.85 1.11,-3.868 1.11,-5.971 h -10.365 z"
         id="path46"
         inkscape:connector-curvature="0" />
      <path
         d="m 471.166,404.645 h -30.465 l 25.6,16.516 h 29.182 c 0.38,0 0.843,-0.024 1.216,-0.05 z"
         id="path48"
         inkscape:connector-curvature="0" />
    </g>
  </g>
</svg>
