<?xml version="1.0" encoding="UTF-8" standalone="no"?>
<svg
   xmlns:dc="http://purl.org/dc/elements/1.1/"
   xmlns:cc="http://creativecommons.org/ns#"
   xmlns:rdf="http://www.w3.org/1999/02/22-rdf-syntax-ns#"
   xmlns:svg="http://www.w3.org/2000/svg"
   xmlns="http://www.w3.org/2000/svg"
   xmlns:sodipodi="http://sodipodi.sourceforge.net/DTD/sodipodi-0.dtd"
   xmlns:inkscape="http://www.inkscape.org/namespaces/inkscape"
   width="98.612587mm"
   height="50.396408mm"
   viewBox="0 0 98.612587 50.396408"
   version="1.1"
   id="svg1015"
   inkscape:version="1.0.1 (3bc2e813f5, 2020-09-07)"
   sodipodi:docname="day.svg">
  <defs
     id="defs1009" />
  <sodipodi:namedview
     id="base"
     pagecolor="#ffffff"
     bordercolor="#666666"
     borderopacity="1.0"
     inkscape:pageopacity="0.0"
     inkscape:pageshadow="2"
     inkscape:zoom="0.35"
     inkscape:cx="-82.216935"
     inkscape:cy="-184.76268"
     inkscape:document-units="mm"
     inkscape:current-layer="layer1"
     inkscape:document-rotation="0"
     showgrid="false"
     fit-margin-top="0"
     fit-margin-left="0"
     fit-margin-right="0"
     fit-margin-bottom="0"
     inkscape:window-width="1920"
     inkscape:window-height="1135"
     inkscape:window-x="0"
     inkscape:window-y="0"
     inkscape:window-maximized="1" />
  <metadata
     id="metadata1012">
    <rdf:RDF>
      <cc:Work
         rdf:about="">
        <dc:format>image/svg+xml</dc:format>
        <dc:type
           rdf:resource="http://purl.org/dc/dcmitype/StillImage" />
        <dc:title />
      </cc:Work>
    </rdf:RDF>
  </metadata>
  <g
     inkscape:label="Layer 1"
     inkscape:groupmode="layer"
     id="layer1"
     transform="translate(-127.58656,-197.05179)">
    <path
       id="rect863"
       style="opacity:1;fill:#0000ff;fill-rule:evenodd;stroke-width:0.499999;stroke-linecap:square;stroke-opacity:0.5;paint-order:stroke fill markers"
       d="m 152.58659,197.05179 c -13.85,0 -25.00003,11.15003 -25.00003,25.00003 v 0.39636 c 0,13.85 11.15003,25.00002 25.00003,25.00002 h 48.61254 c 13.84999,0 25.00002,-11.15002 25.00002,-25.00002 v -0.39636 c 0,-13.85 -11.15003,-25.00003 -25.00002,-25.00003 z m 47.23381,6.9417 a 18.256422,18.256422 0 0 1 0.031,0 18.256422,18.256422 0 0 1 18.25624,18.25625 18.256422,18.256422 0 0 1 -18.25624,18.25676 18.256422,18.256422 0 0 1 -18.25625,-18.25676 18.256422,18.256422 0 0 1 18.22524,-18.25625 z" />
    <path
       id="path867"
       style="fill:#ffffff;fill-rule:evenodd;stroke-width:0.499999;stroke-linecap:square;stroke-opacity:0.5;paint-order:stroke fill markers;opacity:1"
       d="m 154.27906,207.29458 c -0.51786,0 -0.93483,0.44594 -0.93483,0.99994 v 6.15466 c 0,0.554 0.41697,0.99994 0.93483,0.99994 0.51785,0 0.93482,-0.44594 0.93482,-0.99994 v -6.15466 c 0,-0.554 -0.41697,-0.99994 -0.93482,-0.99994 z m -7.69876,6.23424 c -0.24126,-0.0144 -0.47727,0.0639 -0.65112,0.23772 l -0.0822,0.0827 c -0.34772,0.34771 -0.31267,0.94306 0.0791,1.3348 l 2.7776,2.77761 c 0.39174,0.39174 0.9871,0.42727 1.33481,0.0796 l 0.0822,-0.0827 c 0.34771,-0.34771 0.31267,-0.94308 -0.0791,-1.3348 l -2.77761,-2.7771 c -0.19587,-0.19587 -0.44242,-0.30292 -0.68368,-0.31729 z m 15.43472,0.0703 c -0.24126,0.0144 -0.48781,0.12194 -0.68368,0.31781 l -2.77761,2.77761 c -0.39174,0.39173 -0.4273,0.98606 -0.0796,1.33377 l 0.0827,0.0832 c 0.34771,0.34771 0.94306,0.31166 1.3348,-0.0801 l 2.77709,-2.77761 c 0.39174,-0.39174 0.4273,-0.98709 0.0796,-1.3348 l -0.0822,-0.0822 c -0.17385,-0.17386 -0.40987,-0.25208 -0.65112,-0.23772 z m -7.73596,3.79977 a 4.8509922,4.8509922 0 0 0 -4.85139,4.85087 4.8509922,4.8509922 0 0 0 4.85139,4.85138 4.8509922,4.8509922 0 0 0 4.85086,-4.85138 4.8509922,4.8509922 0 0 0 -4.85086,-4.85087 z m 0,1.86035 a 2.9904793,2.9904793 0 0 1 2.99051,2.99052 2.9904793,2.9904793 0 0 1 -2.99051,2.99051 2.9904793,2.9904793 0 0 1 -2.99052,-2.99051 2.9904793,2.9904793 0 0 1 2.99052,-2.99052 z m -13.95522,2.05569 c -0.554,0 -1.00046,0.41698 -1.00046,0.93483 0,0.51786 0.44646,0.93482 1.00046,0.93482 h 6.15414 c 0.554,0 1.00046,-0.41696 1.00046,-0.93482 0,-0.51785 -0.44646,-0.93483 -1.00046,-0.93483 z m 21.75577,0 c -0.554,0 -0.99993,0.41698 -0.99994,0.93483 0,0.51786 0.44594,0.93482 0.99994,0.93482 h 6.15467 c 0.55399,0 0.99994,-0.41696 0.99994,-0.93482 0,-0.51785 -0.44595,-0.93483 -0.99994,-0.93483 z m -12.76253,4.84157 v 5.1e-4 c -0.24125,0.0144 -0.4878,0.12039 -0.68367,0.31626 l -2.77761,2.77761 c -0.39174,0.39174 -0.42679,0.98709 -0.0791,1.3348 l 0.0822,0.0827 c 0.34771,0.34771 0.94306,0.31219 1.3348,-0.0796 l 2.77709,-2.7776 c 0.39174,-0.39173 0.4273,-0.9871 0.0796,-1.33481 l -0.0822,-0.0822 c -0.17386,-0.17386 -0.40987,-0.25208 -0.65112,-0.23771 z m 9.82008,0.0708 c -0.24126,-0.0144 -0.47676,0.0639 -0.65061,0.23771 l -0.0827,0.0822 c -0.34771,0.34771 -0.31215,0.94306 0.0796,1.3348 l 2.77761,2.77761 c 0.39174,0.39173 0.98709,0.42674 1.3348,0.0791 l 0.0822,-0.0822 c 0.34771,-0.34772 0.31216,-0.94306 -0.0796,-1.3348 l -2.77709,-2.77709 c -0.19588,-0.19587 -0.44294,-0.30294 -0.6842,-0.3173 z m -4.8581,2.8236 c -0.51786,0 -0.93483,0.44594 -0.93483,0.99994 v 6.15466 c 0,0.55401 0.41697,0.99994 0.93483,0.99994 0.51785,0 0.93482,-0.44593 0.93482,-0.99994 v -6.15466 c 0,-0.554 -0.41697,-0.99994 -0.93482,-0.99994 z" />
  </g>
</svg>
