<?xml version="1.0" encoding="UTF-8" standalone="no"?>
<svg
   xmlns:dc="http://purl.org/dc/elements/1.1/"
   xmlns:cc="http://creativecommons.org/ns#"
   xmlns:rdf="http://www.w3.org/1999/02/22-rdf-syntax-ns#"
   xmlns:svg="http://www.w3.org/2000/svg"
   xmlns="http://www.w3.org/2000/svg"
   xmlns:sodipodi="http://sodipodi.sourceforge.net/DTD/sodipodi-0.dtd"
   xmlns:inkscape="http://www.inkscape.org/namespaces/inkscape"
   id="Capa_1"
   enable-background="new 0 0 512 512"
   height="330.32199"
   viewBox="0 0 512 330.32199"
   width="512"
   version="1.1"
   sodipodi:docname="USA.svg"
   inkscape:version="0.92.2 5c3e80d, 2017-08-06">
  <metadata
     id="metadata109">
    <rdf:RDF>
      <cc:Work
         rdf:about="">
        <dc:format>image/svg+xml</dc:format>
        <dc:type
           rdf:resource="http://purl.org/dc/dcmitype/StillImage" />
        <dc:title></dc:title>
      </cc:Work>
    </rdf:RDF>
  </metadata>
  <defs
     id="defs107" />
  <sodipodi:namedview
     pagecolor="#ffffff"
     bordercolor="#666666"
     borderopacity="1"
     objecttolerance="10"
     gridtolerance="10"
     guidetolerance="10"
     inkscape:pageopacity="0"
     inkscape:pageshadow="2"
     inkscape:window-width="1920"
     inkscape:window-height="1139"
     id="namedview105"
     showgrid="false"
     fit-margin-top="0"
     fit-margin-left="0"
     fit-margin-right="0"
     fit-margin-bottom="0"
     inkscape:zoom="0.4609375"
     inkscape:cx="260.33898"
     inkscape:cy="165.161"
     inkscape:window-x="1366"
     inkscape:window-y="0"
     inkscape:window-maximized="1"
     inkscape:current-layer="Capa_1" />
  <g
     id="g102"
     transform="translate(0,-90.839)">
    <path
       d="M 495.484,90.839 H 264.258 L 9,267.5 V 414.333 H 495.484 L 512,404.645 V 373.972 L 501.25,363.75 v -29 L 512,326.783 v -47.189 l -9.667,-9.261 V 240.666 L 512,232.404 v -47.188 l -9.667,-8.549 v -26 L 512,138.028 v -30.673 c 0,-9.122 -7.395,-16.516 -16.516,-16.516 z"
       id="path2"
       inkscape:connector-curvature="0"
       style="fill:#e5646e" />
    <path
       d="M 256.333,138.028 H 512 v 47.189 H 256.333 Z"
       id="path4"
       inkscape:connector-curvature="0"
       style="fill:#f2f2f6" />
    <path
       d="m 256,232.405 8.258,47.189 H 512 v -47.189 z"
       id="path6"
       inkscape:connector-curvature="0"
       style="fill:#f2f2f6" />
    <path
       d="M 16.516,355.097 V 271 L 0,279.594 v 47.189 l 7,5.967 v 31 l -7,10.222 v 30.673 c 0,9.122 7.395,16.516 16.516,16.516 h 478.968 c 9.121,0 16.516,-7.395 16.516,-16.516 H 66.065 c -27.365,0 -49.549,-22.183 -49.549,-49.548 z"
       id="path8"
       inkscape:connector-curvature="0"
       style="fill:#db4655" />
    <path
       d="M 264.258,90.839 H 16.516 L 6,107.355 16.516,279.594 h 247.742 z"
       id="path10"
       inkscape:connector-curvature="0"
       style="fill:#5055a0" />
    <path
       d="M 16.516,90.839 C 7.395,90.839 0,98.233 0,107.355 v 172.239 h 16.516 z"
       id="path12"
       inkscape:connector-curvature="0"
       style="fill:#3f3f8f" />
    <path
       d="m 33.113,127.657 c -4.565,0 -8.298,-3.698 -8.298,-8.258 0,-4.56 3.653,-8.258 8.218,-8.258 h 0.081 c 4.565,0 8.258,3.698 8.258,8.258 0,4.56 -3.695,8.258 -8.259,8.258 z"
       id="path14"
       inkscape:connector-curvature="0"
       style="fill:#ffffff" />
    <path
       d="m 33.113,193.722 c -4.565,0 -8.298,-3.698 -8.298,-8.258 0,-4.56 3.653,-8.258 8.218,-8.258 h 0.081 c 4.565,0 8.258,3.698 8.258,8.258 0,4.56 -3.695,8.258 -8.259,8.258 z"
       id="path16"
       inkscape:connector-curvature="0"
       style="fill:#ffffff" />
    <path
       d="m 33.113,259.786 c -4.565,0 -8.298,-3.698 -8.298,-8.258 0,-4.56 3.653,-8.258 8.218,-8.258 h 0.081 c 4.565,0 8.258,3.698 8.258,8.258 0,4.56 -3.695,8.258 -8.259,8.258 z"
       id="path18"
       inkscape:connector-curvature="0"
       style="fill:#ffffff" />
    <path
       d="m 33.113,160.69 c -4.565,0 -8.298,-3.698 -8.298,-8.258 0,-4.56 3.653,-8.258 8.218,-8.258 h 0.081 c 4.565,0 8.258,3.698 8.258,8.258 -10e-4,4.56 -3.695,8.258 -8.259,8.258 z"
       id="path20"
       inkscape:connector-curvature="0"
       style="fill:#f2f2f6" />
    <path
       d="m 33.113,226.754 c -4.565,0 -8.298,-3.698 -8.298,-8.258 0,-4.56 3.653,-8.258 8.218,-8.258 h 0.081 c 4.565,0 8.258,3.698 8.258,8.258 0,4.56 -3.695,8.258 -8.259,8.258 z"
       id="path22"
       inkscape:connector-curvature="0"
       style="fill:#f2f2f6" />
    <path
       d="m 231.306,127.657 c -4.565,0 -8.298,-3.698 -8.298,-8.258 0,-4.56 3.653,-8.258 8.218,-8.258 h 0.081 c 4.565,0 8.258,3.698 8.258,8.258 0,4.56 -3.694,8.258 -8.259,8.258 z"
       id="path24"
       inkscape:connector-curvature="0"
       style="fill:#ffffff" />
    <path
       d="m 231.306,193.722 c -4.565,0 -8.298,-3.698 -8.298,-8.258 0,-4.56 3.653,-8.258 8.218,-8.258 h 0.081 c 4.565,0 8.258,3.698 8.258,8.258 0,4.56 -3.694,8.258 -8.259,8.258 z"
       id="path26"
       inkscape:connector-curvature="0"
       style="fill:#ffffff" />
    <path
       d="m 231.306,259.786 c -4.565,0 -8.298,-3.698 -8.298,-8.258 0,-4.56 3.653,-8.258 8.218,-8.258 h 0.081 c 4.565,0 8.258,3.698 8.258,8.258 0,4.56 -3.694,8.258 -8.259,8.258 z"
       id="path28"
       inkscape:connector-curvature="0"
       style="fill:#ffffff" />
    <g
       id="g40"
       style="fill:#f2f2f6">
      <path
         d="m 231.306,160.69 c -4.565,0 -8.298,-3.698 -8.298,-8.258 0,-4.56 3.653,-8.258 8.218,-8.258 h 0.081 c 4.565,0 8.258,3.698 8.258,8.258 0,4.56 -3.694,8.258 -8.259,8.258 z"
         id="path30"
         inkscape:connector-curvature="0" />
      <path
         d="m 231.306,226.754 c -4.565,0 -8.298,-3.698 -8.298,-8.258 0,-4.56 3.653,-8.258 8.218,-8.258 h 0.081 c 4.565,0 8.258,3.698 8.258,8.258 0,4.56 -3.694,8.258 -8.259,8.258 z"
         id="path32"
         inkscape:connector-curvature="0" />
      <path
         d="m 82.661,127.657 c -4.565,0 -8.298,-3.698 -8.298,-8.258 0,-4.56 3.653,-8.258 8.218,-8.258 h 0.081 c 4.565,0 8.258,3.698 8.258,8.258 0,4.56 -3.694,8.258 -8.259,8.258 z"
         id="path34"
         inkscape:connector-curvature="0" />
      <path
         d="m 82.661,193.722 c -4.565,0 -8.298,-3.698 -8.298,-8.258 0,-4.56 3.653,-8.258 8.218,-8.258 h 0.081 c 4.565,0 8.258,3.698 8.258,8.258 0,4.56 -3.694,8.258 -8.259,8.258 z"
         id="path36"
         inkscape:connector-curvature="0" />
      <path
         d="m 82.661,259.786 c -4.565,0 -8.298,-3.698 -8.298,-8.258 0,-4.56 3.653,-8.258 8.218,-8.258 h 0.081 c 4.565,0 8.258,3.698 8.258,8.258 0,4.56 -3.694,8.258 -8.259,8.258 z"
         id="path38"
         inkscape:connector-curvature="0" />
    </g>
    <path
       d="m 82.661,160.69 c -4.565,0 -8.298,-3.698 -8.298,-8.258 0,-4.56 3.653,-8.258 8.218,-8.258 h 0.081 c 4.565,0 8.258,3.698 8.258,8.258 -0.001,4.56 -3.694,8.258 -8.259,8.258 z"
       id="path42"
       inkscape:connector-curvature="0"
       style="fill:#ffffff" />
    <path
       d="m 82.661,226.754 c -4.565,0 -8.298,-3.698 -8.298,-8.258 0,-4.56 3.653,-8.258 8.218,-8.258 h 0.081 c 4.565,0 8.258,3.698 8.258,8.258 0,4.56 -3.694,8.258 -8.259,8.258 z"
       id="path44"
       inkscape:connector-curvature="0"
       style="fill:#ffffff" />
    <path
       d="m 57.887,144.173 c -4.565,0 -8.298,-3.698 -8.298,-8.258 0,-4.56 3.653,-8.258 8.218,-8.258 h 0.081 c 4.565,0 8.258,3.698 8.258,8.258 -0.001,4.561 -3.694,8.258 -8.259,8.258 z"
       id="path46"
       inkscape:connector-curvature="0"
       style="fill:#ffffff" />
    <path
       d="m 57.887,210.238 c -4.565,0 -8.298,-3.698 -8.298,-8.258 0,-4.56 3.653,-8.258 8.218,-8.258 h 0.081 c 4.565,0 8.258,3.698 8.258,8.258 0,4.56 -3.694,8.258 -8.259,8.258 z"
       id="path48"
       inkscape:connector-curvature="0"
       style="fill:#ffffff" />
    <path
       d="m 57.887,177.206 c -4.565,0 -8.298,-3.698 -8.298,-8.258 0,-4.56 3.653,-8.258 8.218,-8.258 h 0.081 c 4.565,0 8.258,3.698 8.258,8.258 0,4.56 -3.694,8.258 -8.259,8.258 z"
       id="path50"
       inkscape:connector-curvature="0"
       style="fill:#f2f2f6" />
    <path
       d="m 57.887,243.27 c -4.565,0 -8.298,-3.698 -8.298,-8.258 0,-4.56 3.653,-8.258 8.218,-8.258 h 0.081 c 4.565,0 8.258,3.698 8.258,8.258 0,4.56 -3.694,8.258 -8.259,8.258 z"
       id="path52"
       inkscape:connector-curvature="0"
       style="fill:#f2f2f6" />
    <path
       d="m 132.21,127.657 c -4.565,0 -8.298,-3.698 -8.298,-8.258 0,-4.56 3.653,-8.258 8.218,-8.258 h 0.081 c 4.565,0 8.258,3.698 8.258,8.258 0,4.56 -3.695,8.258 -8.259,8.258 z"
       id="path54"
       inkscape:connector-curvature="0"
       style="fill:#ffffff" />
    <path
       d="m 132.21,193.722 c -4.565,0 -8.298,-3.698 -8.298,-8.258 0,-4.56 3.653,-8.258 8.218,-8.258 h 0.081 c 4.565,0 8.258,3.698 8.258,8.258 0,4.56 -3.695,8.258 -8.259,8.258 z"
       id="path56"
       inkscape:connector-curvature="0"
       style="fill:#ffffff" />
    <path
       d="m 132.21,259.786 c -4.565,0 -8.298,-3.698 -8.298,-8.258 0,-4.56 3.653,-8.258 8.218,-8.258 h 0.081 c 4.565,0 8.258,3.698 8.258,8.258 0,4.56 -3.695,8.258 -8.259,8.258 z"
       id="path58"
       inkscape:connector-curvature="0"
       style="fill:#ffffff" />
    <path
       d="m 132.21,160.69 c -4.565,0 -8.298,-3.698 -8.298,-8.258 0,-4.56 3.653,-8.258 8.218,-8.258 h 0.081 c 4.565,0 8.258,3.698 8.258,8.258 -0.001,4.56 -3.695,8.258 -8.259,8.258 z"
       id="path60"
       inkscape:connector-curvature="0"
       style="fill:#f2f2f6" />
    <path
       d="m 132.21,226.754 c -4.565,0 -8.298,-3.698 -8.298,-8.258 0,-4.56 3.653,-8.258 8.218,-8.258 h 0.081 c 4.565,0 8.258,3.698 8.258,8.258 0,4.56 -3.695,8.258 -8.259,8.258 z"
       id="path62"
       inkscape:connector-curvature="0"
       style="fill:#f2f2f6" />
    <path
       d="m 107.435,144.173 c -4.565,0 -8.298,-3.698 -8.298,-8.258 0,-4.56 3.653,-8.258 8.218,-8.258 h 0.081 c 4.565,0 8.258,3.698 8.258,8.258 0,4.561 -3.694,8.258 -8.259,8.258 z"
       id="path64"
       inkscape:connector-curvature="0"
       style="fill:#f2f2f6" />
    <path
       d="m 107.435,210.238 c -4.565,0 -8.298,-3.698 -8.298,-8.258 0,-4.56 3.653,-8.258 8.218,-8.258 h 0.081 c 4.565,0 8.258,3.698 8.258,8.258 0,4.56 -3.694,8.258 -8.259,8.258 z"
       id="path66"
       inkscape:connector-curvature="0"
       style="fill:#f2f2f6" />
    <path
       d="m 107.435,177.206 c -4.565,0 -8.298,-3.698 -8.298,-8.258 0,-4.56 3.653,-8.258 8.218,-8.258 h 0.081 c 4.565,0 8.258,3.698 8.258,8.258 0,4.56 -3.694,8.258 -8.259,8.258 z"
       id="path68"
       inkscape:connector-curvature="0"
       style="fill:#ffffff" />
    <path
       d="m 107.435,243.27 c -4.565,0 -8.298,-3.698 -8.298,-8.258 0,-4.56 3.653,-8.258 8.218,-8.258 h 0.081 c 4.565,0 8.258,3.698 8.258,8.258 0,4.56 -3.694,8.258 -8.259,8.258 z"
       id="path70"
       inkscape:connector-curvature="0"
       style="fill:#ffffff" />
    <path
       d="m 181.677,127.657 c -4.565,0 -8.298,-3.698 -8.298,-8.258 0,-4.56 3.653,-8.258 8.218,-8.258 h 0.081 c 4.565,0 8.258,3.698 8.258,8.258 0,4.56 -3.694,8.258 -8.259,8.258 z"
       id="path72"
       inkscape:connector-curvature="0"
       style="fill:#f2f2f6" />
    <path
       d="m 181.677,193.722 c -4.565,0 -8.298,-3.698 -8.298,-8.258 0,-4.56 3.653,-8.258 8.218,-8.258 h 0.081 c 4.565,0 8.258,3.698 8.258,8.258 0,4.56 -3.694,8.258 -8.259,8.258 z"
       id="path74"
       inkscape:connector-curvature="0"
       style="fill:#f2f2f6" />
    <path
       d="m 181.677,259.786 c -4.565,0 -8.298,-3.698 -8.298,-8.258 0,-4.56 3.653,-8.258 8.218,-8.258 h 0.081 c 4.565,0 8.258,3.698 8.258,8.258 0,4.56 -3.694,8.258 -8.259,8.258 z"
       id="path76"
       inkscape:connector-curvature="0"
       style="fill:#f2f2f6" />
    <path
       d="m 181.677,160.69 c -4.565,0 -8.298,-3.698 -8.298,-8.258 0,-4.56 3.653,-8.258 8.218,-8.258 h 0.081 c 4.565,0 8.258,3.698 8.258,8.258 -0.001,4.56 -3.694,8.258 -8.259,8.258 z"
       id="path78"
       inkscape:connector-curvature="0"
       style="fill:#ffffff" />
    <path
       d="m 181.677,226.754 c -4.565,0 -8.298,-3.698 -8.298,-8.258 0,-4.56 3.653,-8.258 8.218,-8.258 h 0.081 c 4.565,0 8.258,3.698 8.258,8.258 0,4.56 -3.694,8.258 -8.259,8.258 z"
       id="path80"
       inkscape:connector-curvature="0"
       style="fill:#ffffff" />
    <path
       d="m 156.903,144.173 c -4.565,0 -8.298,-3.698 -8.298,-8.258 0,-4.56 3.653,-8.258 8.218,-8.258 h 0.081 c 4.565,0 8.258,3.698 8.258,8.258 -0.001,4.561 -3.694,8.258 -8.259,8.258 z"
       id="path82"
       inkscape:connector-curvature="0"
       style="fill:#ffffff" />
    <path
       d="m 156.903,210.238 c -4.565,0 -8.298,-3.698 -8.298,-8.258 0,-4.56 3.653,-8.258 8.218,-8.258 h 0.081 c 4.565,0 8.258,3.698 8.258,8.258 0,4.56 -3.694,8.258 -8.259,8.258 z"
       id="path84"
       inkscape:connector-curvature="0"
       style="fill:#ffffff" />
    <path
       d="m 156.903,177.206 c -4.565,0 -8.298,-3.698 -8.298,-8.258 0,-4.56 3.653,-8.258 8.218,-8.258 h 0.081 c 4.565,0 8.258,3.698 8.258,8.258 0,4.56 -3.694,8.258 -8.259,8.258 z"
       id="path86"
       inkscape:connector-curvature="0"
       style="fill:#f2f2f6" />
    <path
       d="m 156.903,243.27 c -4.565,0 -8.298,-3.698 -8.298,-8.258 0,-4.56 3.653,-8.258 8.218,-8.258 h 0.081 c 4.565,0 8.258,3.698 8.258,8.258 0,4.56 -3.694,8.258 -8.259,8.258 z"
       id="path88"
       inkscape:connector-curvature="0"
       style="fill:#f2f2f6" />
    <path
       d="m 206.532,144.173 c -4.565,0 -8.298,-3.698 -8.298,-8.258 0,-4.56 3.653,-8.258 8.218,-8.258 h 0.081 c 4.565,0 8.258,3.698 8.258,8.258 -0.001,4.561 -3.694,8.258 -8.259,8.258 z"
       id="path90"
       inkscape:connector-curvature="0"
       style="fill:#f2f2f6" />
    <path
       d="m 206.532,210.238 c -4.565,0 -8.298,-3.698 -8.298,-8.258 0,-4.56 3.653,-8.258 8.218,-8.258 h 0.081 c 4.565,0 8.258,3.698 8.258,8.258 0,4.56 -3.694,8.258 -8.259,8.258 z"
       id="path92"
       inkscape:connector-curvature="0"
       style="fill:#f2f2f6" />
    <path
       d="m 206.532,177.206 c -4.565,0 -8.298,-3.698 -8.298,-8.258 0,-4.56 3.653,-8.258 8.218,-8.258 h 0.081 c 4.565,0 8.258,3.698 8.258,8.258 0,4.56 -3.694,8.258 -8.259,8.258 z"
       id="path94"
       inkscape:connector-curvature="0"
       style="fill:#ffffff" />
    <path
       d="m 206.532,243.27 c -4.565,0 -8.298,-3.698 -8.298,-8.258 0,-4.56 3.653,-8.258 8.218,-8.258 h 0.081 c 4.565,0 8.258,3.698 8.258,8.258 0,4.56 -3.694,8.258 -8.259,8.258 z"
       id="path96"
       inkscape:connector-curvature="0"
       style="fill:#ffffff" />
    <path
       d="m 3,360.333 17.26,13.639 H 512 V 326.783 H 16.516 Z"
       id="path98"
       inkscape:connector-curvature="0"
       style="fill:#f2f2f6" />
    <path
       d="m 0,326.783 v 47.189 h 20.26 c -2.401,-5.82 -3.743,-12.189 -3.743,-18.876 V 326.782 H 0 Z"
       id="path100"
       inkscape:connector-curvature="0"
       style="fill:#e1e1e6" />
  </g>
</svg>
